<svg width="64" height="56" viewBox="0 0 64 56" fill="none" xmlns="http://www.w3.org/2000/svg">
<path d="M6 0C2.625 0 0 2.75 0 6V50C0 53.375 2.625 56 6 56H58C61.25 56 64 53.375 64 50V6C64 2.75 61.25 0 58 0H6ZM6 4H19.25C19.625 4 20 4.375 20 4.75V7.25C20 7.75 19.625 8 19.25 8H4.75C4.25 8 4 7.75 4 7.25V6C4 5 4.875 4 6 4ZM59.25 16H4.75C4.25 16 4 15.75 4 15.25V10.75C4 10.375 4.25 10 4.75 10H22L25.75 4.375C25.875 4.125 26.125 4 26.375 4H58C59 4 60 5 60 6V15.25C60 15.75 59.625 16 59.25 16ZM32 49C23.625 49 17 42.375 17 34C17 25.75 23.625 19 32 19C40.25 19 47 25.75 47 34C47 42.375 40.25 49 32 49ZM32 23C25.875 23 21 28 21 34C21 40.125 25.875 45 32 45C38 45 43 40.125 43 34C43 28 38 23 32 23ZM26 36C24.875 36 24 35.125 24 34C24 29.625 27.5 26 32 26C33 26 34 27 34 28C34 29.125 33 30 32 30C29.75 30 28 31.875 28 34C28 35.125 27 36 26 36Z" fill="white"/>
</svg>
